<svg width="150" height="150" viewBox="0 0 150 150" fill="none" xmlns="http://www.w3.org/2000/svg">
<path opacity="0.4" d="M118.75 56.25C118.75 65.3125 116.062 73.6251 111.437 80.5626C104.687 90.5626 94 97.625 81.5625 99.4375C79.4375 99.8125 77.25 100 75 100C72.75 100 70.5625 99.8125 68.4375 99.4375C56 97.625 45.3125 90.5626 38.5625 80.5626C33.9375 73.6251 31.25 65.3125 31.25 56.25C31.25 32.0625 50.8125 12.5 75 12.5C99.1875 12.5 118.75 32.0625 118.75 56.25Z" fill="#007AFF"/>
<path d="M132.812 115.438L122.5 117.875C120.187 118.437 118.375 120.188 117.875 122.5L115.687 131.688C114.5 136.688 108.125 138.188 104.812 134.25L74.9998 100L45.1873 134.312C41.8748 138.25 35.4998 136.75 34.3123 131.75L32.1248 122.562C31.5623 120.25 29.7498 118.437 27.4998 117.937L17.1873 115.5C12.4373 114.375 10.7498 108.437 14.1873 105L38.5623 80.625C45.3123 90.625 55.9998 97.6876 68.4373 99.5001C70.5623 99.8751 72.7498 100.063 74.9998 100.063C77.2498 100.063 79.4373 99.8751 81.5623 99.5001C93.9998 97.6876 104.687 90.625 111.437 80.625L135.812 105C139.25 108.375 137.562 114.313 132.812 115.438Z" fill="#007AFF"/>
<path d="M78.6248 37.375L82.3123 44.75C82.8123 45.75 84.1248 46.75 85.3123 46.9375L91.9998 48.0624C96.2498 48.7499 97.2498 51.875 94.1873 54.9375L88.9998 60.1249C88.1248 60.9999 87.6248 62.6875 87.9373 63.9375L89.4373 70.375C90.6248 75.4375 87.9373 77.4374 83.4373 74.7499L77.1873 71.0624C76.0623 70.3749 74.1873 70.3749 73.0623 71.0624L66.8123 74.7499C62.3123 77.3749 59.6248 75.4375 60.8123 70.375L62.3123 63.9375C62.5623 62.75 62.1248 60.9999 61.2498 60.1249L56.0623 54.9375C52.9998 51.875 53.9998 48.8124 58.2498 48.0624L64.9373 46.9375C66.0623 46.75 67.3748 45.75 67.8748 44.75L71.5623 37.375C73.3748 33.375 76.6248 33.375 78.6248 37.375Z" fill="#007AFF"/>
</svg>
